<svg id="visual" viewBox="0 0 1280 1080" width="1280" height="1080" xmlns="http://www.w3.org/2000/svg" xmlns:xlink="http://www.w3.org/1999/xlink" version="1.1"><g stroke-width="1" stroke-linejoin="bevel"><path d="M629 554L617 463L550 500Z" fill="#2d2d2d" stroke="#2d2d2d"></path><path d="M738 486L631 405L617 463Z" fill="#1a1a1a" stroke="#1a1a1a"></path><path d="M617 463L631 405L550 500Z" fill="#404040" stroke="#404040"></path><path d="M629 554L738 486L617 463Z" fill="#1a1a1a" stroke="#1a1a1a"></path><path d="M550 500L506 626L629 554Z" fill="#232323" stroke="#232323"></path><path d="M540 696L668 685L629 554Z" fill="#404040" stroke="#404040"></path><path d="M629 554L804 609L738 486Z" fill="#282828" stroke="#282828"></path><path d="M738 486L749 395L631 405Z" fill="#3b3b3b" stroke="#3b3b3b"></path><path d="M506 626L540 696L629 554Z" fill="#313131" stroke="#313131"></path><path d="M470 353L403 491L550 500Z" fill="#161616" stroke="#161616"></path><path d="M550 500L395 583L506 626Z" fill="#161616" stroke="#161616"></path><path d="M506 626L378 753L540 696Z" fill="#2d2d2d" stroke="#2d2d2d"></path><path d="M518 207L470 353L631 405Z" fill="#3b3b3b" stroke="#3b3b3b"></path><path d="M631 405L470 353L550 500Z" fill="#1a1a1a" stroke="#1a1a1a"></path><path d="M403 491L395 583L550 500Z" fill="#3b3b3b" stroke="#3b3b3b"></path><path d="M668 685L804 609L629 554Z" fill="#111111" stroke="#111111"></path><path d="M738 486L927 504L749 395Z" fill="#2d2d2d" stroke="#2d2d2d"></path><path d="M668 685L769 676L804 609Z" fill="#232323" stroke="#232323"></path><path d="M470 353L392 365L403 491Z" fill="#111111" stroke="#111111"></path><path d="M403 491L299 470L395 583Z" fill="#3b3b3b" stroke="#3b3b3b"></path><path d="M769 676L875 611L804 609Z" fill="#313131" stroke="#313131"></path><path d="M804 609L927 504L738 486Z" fill="#404040" stroke="#404040"></path><path d="M751 201L654 221L749 395Z" fill="#161616" stroke="#161616"></path><path d="M749 395L654 221L631 405Z" fill="#404040" stroke="#404040"></path><path d="M470 353L343 206L392 365Z" fill="#404040" stroke="#404040"></path><path d="M294 404L299 470L403 491Z" fill="#3b3b3b" stroke="#3b3b3b"></path><path d="M654 221L518 207L631 405Z" fill="#282828" stroke="#282828"></path><path d="M392 365L294 404L403 491Z" fill="#282828" stroke="#282828"></path><path d="M232 265L294 404L392 365Z" fill="#404040" stroke="#404040"></path><path d="M875 611L927 504L804 609Z" fill="#111111" stroke="#111111"></path><path d="M277 571L378 753L395 583Z" fill="#282828" stroke="#282828"></path><path d="M395 583L378 753L506 626Z" fill="#1a1a1a" stroke="#1a1a1a"></path><path d="M540 696L551 845L668 685Z" fill="#3b3b3b" stroke="#3b3b3b"></path><path d="M668 685L757 831L769 676Z" fill="#111111" stroke="#111111"></path><path d="M163 450L277 571L299 470Z" fill="#1f1f1f" stroke="#1f1f1f"></path><path d="M299 470L277 571L395 583Z" fill="#232323" stroke="#232323"></path><path d="M378 753L551 845L540 696Z" fill="#232323" stroke="#232323"></path><path d="M769 676L925 738L875 611Z" fill="#1a1a1a" stroke="#1a1a1a"></path><path d="M871 210L751 201L749 395Z" fill="#111111" stroke="#111111"></path><path d="M654 221L544 163L518 207Z" fill="#161616" stroke="#161616"></path><path d="M645 113L544 163L654 221Z" fill="#404040" stroke="#404040"></path><path d="M518 207L343 206L470 353Z" fill="#1f1f1f" stroke="#1f1f1f"></path><path d="M652 868L757 831L668 685Z" fill="#111111" stroke="#111111"></path><path d="M551 845L652 868L668 685Z" fill="#2d2d2d" stroke="#2d2d2d"></path><path d="M927 504L921 345L749 395Z" fill="#161616" stroke="#161616"></path><path d="M901 808L925 738L769 676Z" fill="#282828" stroke="#282828"></path><path d="M875 611L1028 633L927 504Z" fill="#1f1f1f" stroke="#1f1f1f"></path><path d="M367 142L343 206L518 207Z" fill="#404040" stroke="#404040"></path><path d="M751 201L645 113L654 221Z" fill="#161616" stroke="#161616"></path><path d="M544 163L367 142L518 207Z" fill="#313131" stroke="#313131"></path><path d="M921 345L871 210L749 395Z" fill="#313131" stroke="#313131"></path><path d="M751 201L779 137L645 113Z" fill="#282828" stroke="#282828"></path><path d="M854 161L779 137L751 201Z" fill="#282828" stroke="#282828"></path><path d="M925 738L982 682L875 611Z" fill="#313131" stroke="#313131"></path><path d="M927 504L1003 316L921 345Z" fill="#1a1a1a" stroke="#1a1a1a"></path><path d="M757 831L901 808L769 676Z" fill="#1f1f1f" stroke="#1f1f1f"></path><path d="M925 738L1068 861L982 682Z" fill="#363636" stroke="#363636"></path><path d="M808 934L901 808L757 831Z" fill="#232323" stroke="#232323"></path><path d="M484 953L599 938L551 845Z" fill="#111111" stroke="#111111"></path><path d="M551 845L599 938L652 868Z" fill="#1a1a1a" stroke="#1a1a1a"></path><path d="M652 868L808 934L757 831Z" fill="#282828" stroke="#282828"></path><path d="M871 210L854 161L751 201Z" fill="#313131" stroke="#313131"></path><path d="M1023 123L854 161L871 210Z" fill="#161616" stroke="#161616"></path><path d="M467 0L367 142L544 163Z" fill="#282828" stroke="#282828"></path><path d="M1028 633L1039 520L927 504Z" fill="#1f1f1f" stroke="#1f1f1f"></path><path d="M921 345L1003 316L871 210Z" fill="#282828" stroke="#282828"></path><path d="M235 793L342 868L378 753Z" fill="#1f1f1f" stroke="#1f1f1f"></path><path d="M378 753L342 868L551 845Z" fill="#1a1a1a" stroke="#1a1a1a"></path><path d="M139 375L163 450L294 404Z" fill="#111111" stroke="#111111"></path><path d="M294 404L163 450L299 470Z" fill="#3b3b3b" stroke="#3b3b3b"></path><path d="M277 571L220 754L378 753Z" fill="#1a1a1a" stroke="#1a1a1a"></path><path d="M232 265L392 365L343 206Z" fill="#1f1f1f" stroke="#1f1f1f"></path><path d="M267 90L232 265L343 206Z" fill="#1a1a1a" stroke="#1a1a1a"></path><path d="M1119 600L1028 633L1163 766Z" fill="#1a1a1a" stroke="#1a1a1a"></path><path d="M982 682L1028 633L875 611Z" fill="#404040" stroke="#404040"></path><path d="M1039 520L1003 316L927 504Z" fill="#363636" stroke="#363636"></path><path d="M144 709L220 754L277 571Z" fill="#1a1a1a" stroke="#1a1a1a"></path><path d="M342 868L484 953L551 845Z" fill="#404040" stroke="#404040"></path><path d="M220 754L235 793L378 753Z" fill="#282828" stroke="#282828"></path><path d="M858 1005L808 934L808 1080Z" fill="#232323" stroke="#232323"></path><path d="M599 938L808 934L652 868Z" fill="#2d2d2d" stroke="#2d2d2d"></path><path d="M163 450L130 555L277 571Z" fill="#404040" stroke="#404040"></path><path d="M220 754L87 840L235 793Z" fill="#363636" stroke="#363636"></path><path d="M232 265L139 375L294 404Z" fill="#363636" stroke="#363636"></path><path d="M163 450L0 501L130 555Z" fill="#404040" stroke="#404040"></path><path d="M272 984L369 937L342 868Z" fill="#313131" stroke="#313131"></path><path d="M342 868L369 937L484 953Z" fill="#161616" stroke="#161616"></path><path d="M232 265L163 279L139 375Z" fill="#404040" stroke="#404040"></path><path d="M87 115L163 279L232 265Z" fill="#232323" stroke="#232323"></path><path d="M130 555L144 709L277 571Z" fill="#363636" stroke="#363636"></path><path d="M235 793L272 984L342 868Z" fill="#111111" stroke="#111111"></path><path d="M772 0L612 0L645 113Z" fill="#404040" stroke="#404040"></path><path d="M645 113L612 0L544 163Z" fill="#232323" stroke="#232323"></path><path d="M772 0L645 113L779 137Z" fill="#313131" stroke="#313131"></path><path d="M1132 240L1032 222L1003 316Z" fill="#2d2d2d" stroke="#2d2d2d"></path><path d="M1003 316L1032 222L871 210Z" fill="#363636" stroke="#363636"></path><path d="M854 161L772 0L779 137Z" fill="#1f1f1f" stroke="#1f1f1f"></path><path d="M1028 633L1119 600L1039 520Z" fill="#161616" stroke="#161616"></path><path d="M1039 520L1163 468L1003 316Z" fill="#282828" stroke="#282828"></path><path d="M1163 766L1028 633L982 682Z" fill="#282828" stroke="#282828"></path><path d="M1068 861L925 738L901 808Z" fill="#282828" stroke="#282828"></path><path d="M612 0L467 0L544 163Z" fill="#3b3b3b" stroke="#3b3b3b"></path><path d="M367 142L267 90L343 206Z" fill="#1f1f1f" stroke="#1f1f1f"></path><path d="M398 0L267 90L367 142Z" fill="#232323" stroke="#232323"></path><path d="M942 0L772 0L854 161Z" fill="#161616" stroke="#161616"></path><path d="M467 0L398 0L367 142Z" fill="#404040" stroke="#404040"></path><path d="M680 1080L808 934L599 938Z" fill="#363636" stroke="#363636"></path><path d="M808 934L858 1005L901 808Z" fill="#3b3b3b" stroke="#3b3b3b"></path><path d="M1119 600L1163 468L1039 520Z" fill="#404040" stroke="#404040"></path><path d="M345 1080L540 1080L484 953Z" fill="#404040" stroke="#404040"></path><path d="M484 953L540 1080L599 938Z" fill="#282828" stroke="#282828"></path><path d="M540 1080L680 1080L599 938Z" fill="#313131" stroke="#313131"></path><path d="M1132 240L1023 123L1032 222Z" fill="#3b3b3b" stroke="#3b3b3b"></path><path d="M1032 222L1023 123L871 210Z" fill="#282828" stroke="#282828"></path><path d="M129 958L272 984L235 793Z" fill="#232323" stroke="#232323"></path><path d="M369 937L345 1080L484 953Z" fill="#3b3b3b" stroke="#3b3b3b"></path><path d="M980 1002L1068 861L901 808Z" fill="#1a1a1a" stroke="#1a1a1a"></path><path d="M1119 600L1280 571L1163 468Z" fill="#161616" stroke="#161616"></path><path d="M1163 468L1154 325L1003 316Z" fill="#313131" stroke="#313131"></path><path d="M1154 325L1132 240L1003 316Z" fill="#1a1a1a" stroke="#1a1a1a"></path><path d="M0 404L139 375L0 261Z" fill="#111111" stroke="#111111"></path><path d="M0 404L163 450L139 375Z" fill="#3b3b3b" stroke="#3b3b3b"></path><path d="M0 404L0 501L163 450Z" fill="#111111" stroke="#111111"></path><path d="M130 555L0 611L144 709Z" fill="#1a1a1a" stroke="#1a1a1a"></path><path d="M144 709L87 840L220 754Z" fill="#404040" stroke="#404040"></path><path d="M398 0L285 0L267 90Z" fill="#161616" stroke="#161616"></path><path d="M267 90L87 115L232 265Z" fill="#404040" stroke="#404040"></path><path d="M680 1080L808 1080L808 934Z" fill="#1f1f1f" stroke="#1f1f1f"></path><path d="M858 1005L980 1002L901 808Z" fill="#404040" stroke="#404040"></path><path d="M0 501L0 611L130 555Z" fill="#111111" stroke="#111111"></path><path d="M0 760L87 840L144 709Z" fill="#282828" stroke="#282828"></path><path d="M0 261L139 375L163 279Z" fill="#111111" stroke="#111111"></path><path d="M1023 123L942 0L854 161Z" fill="#282828" stroke="#282828"></path><path d="M1025 0L942 0L1023 123Z" fill="#404040" stroke="#404040"></path><path d="M1068 861L1163 766L982 682Z" fill="#3b3b3b" stroke="#3b3b3b"></path><path d="M874 1080L980 1002L858 1005Z" fill="#232323" stroke="#232323"></path><path d="M1068 861L1145 834L1163 766Z" fill="#363636" stroke="#363636"></path><path d="M232 1080L345 1080L272 984Z" fill="#2d2d2d" stroke="#2d2d2d"></path><path d="M272 984L345 1080L369 937Z" fill="#2d2d2d" stroke="#2d2d2d"></path><path d="M808 1080L874 1080L858 1005Z" fill="#232323" stroke="#232323"></path><path d="M1130 984L1145 834L1068 861Z" fill="#161616" stroke="#161616"></path><path d="M86 0L87 115L267 90Z" fill="#404040" stroke="#404040"></path><path d="M0 992L129 958L87 840Z" fill="#161616" stroke="#161616"></path><path d="M87 840L129 958L235 793Z" fill="#1a1a1a" stroke="#1a1a1a"></path><path d="M0 611L0 760L144 709Z" fill="#363636" stroke="#363636"></path><path d="M87 115L0 261L163 279Z" fill="#282828" stroke="#282828"></path><path d="M1170 0L1025 0L1023 123Z" fill="#111111" stroke="#111111"></path><path d="M0 760L0 802L87 840Z" fill="#1f1f1f" stroke="#1f1f1f"></path><path d="M129 958L232 1080L272 984Z" fill="#404040" stroke="#404040"></path><path d="M1280 738L1280 571L1119 600Z" fill="#3b3b3b" stroke="#3b3b3b"></path><path d="M1163 468L1280 369L1154 325Z" fill="#282828" stroke="#282828"></path><path d="M1280 246L1187 145L1132 240Z" fill="#404040" stroke="#404040"></path><path d="M1132 240L1187 145L1023 123Z" fill="#2d2d2d" stroke="#2d2d2d"></path><path d="M1280 738L1119 600L1163 766Z" fill="#363636" stroke="#363636"></path><path d="M1280 571L1280 446L1163 468Z" fill="#3b3b3b" stroke="#3b3b3b"></path><path d="M1280 246L1132 240L1154 325Z" fill="#404040" stroke="#404040"></path><path d="M1280 446L1280 369L1163 468Z" fill="#1f1f1f" stroke="#1f1f1f"></path><path d="M0 0L0 153L87 115Z" fill="#232323" stroke="#232323"></path><path d="M87 115L0 153L0 261Z" fill="#1f1f1f" stroke="#1f1f1f"></path><path d="M980 1002L1130 984L1068 861Z" fill="#3b3b3b" stroke="#3b3b3b"></path><path d="M1280 793L1280 738L1163 766Z" fill="#1f1f1f" stroke="#1f1f1f"></path><path d="M1035 1080L1130 984L980 1002Z" fill="#363636" stroke="#363636"></path><path d="M874 1080L1035 1080L980 1002Z" fill="#282828" stroke="#282828"></path><path d="M1280 793L1163 766L1145 834Z" fill="#282828" stroke="#282828"></path><path d="M285 0L86 0L267 90Z" fill="#1a1a1a" stroke="#1a1a1a"></path><path d="M1280 369L1280 246L1154 325Z" fill="#111111" stroke="#111111"></path><path d="M1280 927L1280 793L1145 834Z" fill="#1a1a1a" stroke="#1a1a1a"></path><path d="M1280 0L1170 0L1187 145Z" fill="#1a1a1a" stroke="#1a1a1a"></path><path d="M1187 145L1170 0L1023 123Z" fill="#2d2d2d" stroke="#2d2d2d"></path><path d="M0 802L0 992L87 840Z" fill="#313131" stroke="#313131"></path><path d="M129 958L82 1080L232 1080Z" fill="#282828" stroke="#282828"></path><path d="M0 992L82 1080L129 958Z" fill="#1a1a1a" stroke="#1a1a1a"></path><path d="M1280 246L1280 148L1187 145Z" fill="#1a1a1a" stroke="#1a1a1a"></path><path d="M86 0L0 0L87 115Z" fill="#363636" stroke="#363636"></path><path d="M1193 1080L1280 927L1130 984Z" fill="#313131" stroke="#313131"></path><path d="M1130 984L1280 927L1145 834Z" fill="#161616" stroke="#161616"></path><path d="M1035 1080L1193 1080L1130 984Z" fill="#161616" stroke="#161616"></path><path d="M0 992L0 1080L82 1080Z" fill="#111111" stroke="#111111"></path><path d="M1280 148L1280 0L1187 145Z" fill="#404040" stroke="#404040"></path><path d="M1193 1080L1280 1080L1280 927Z" fill="#313131" stroke="#313131"></path></g></svg>